<svg xmlns="http://www.w3.org/2000/svg" viewBox="0 0 420 190" role="img" aria-label="Lane 2 car">
  <defs>
    <linearGradient id="l2-body" x1="0" y1="0" x2="0" y2="1">
      <stop offset="0" stop-color="#d9484f"/>
      <stop offset="1" stop-color="#8f2329"/>
    </linearGradient>
    <radialGradient id="l2-rim" cx="0.38" cy="0.38" r="0.7">
      <stop offset="0" stop-color="#eef2f7"/>
      <stop offset="0.65" stop-color="#aab4c0"/>
      <stop offset="1" stop-color="#5f6a76"/>
    </radialGradient>
  </defs>

  <!-- mirrored: car faces left toward centre -->
  <g transform="translate(420,0) scale(-1,1)">
    <ellipse cx="212" cy="168" rx="168" ry="15" fill="#000" opacity="0.28"/>

    <path d="M62 134 L62 84 C62 74 70 68 80 68 L150 66 L360 118
             C367 120 367 128 360 130 L62 134 Z"
          fill="url(#l2-body)" stroke="#3d0f13" stroke-width="2" stroke-linejoin="round"/>

    <path d="M80 68 L150 66 L360 118 L354 122 L150 72 L83 74 Z" fill="#e7686e" opacity="0.85"/>

    <rect x="112" y="74" width="70" height="16" rx="8" fill="#3d0f13" opacity="0.85"/>

    <path d="M78 98 L150 88 L344 116 L340 127 L150 100 L80 108 Z" fill="#f5f7fa"/>

    <circle cx="214" cy="107" r="19" fill="#f5f7fa"/>
    <circle cx="214" cy="107" r="19" fill="none" stroke="#8f2329" stroke-width="2"/>
    <path d="M217 96 l-9 14 h6 l-3 10 12 -16 h-6 z" fill="#8f2329"/>

    <g>
      <circle cx="122" cy="150" r="29" fill="#101318"/>
      <circle cx="122" cy="150" r="29" fill="none" stroke="#2f3843" stroke-width="3"/>
      <circle cx="122" cy="150" r="13" fill="url(#l2-rim)"/>
      <circle cx="122" cy="150" r="3.5" fill="#3a4450"/>
      <circle cx="306" cy="150" r="29" fill="#101318"/>
      <circle cx="306" cy="150" r="29" fill="none" stroke="#2f3843" stroke-width="3"/>
      <circle cx="306" cy="150" r="13" fill="url(#l2-rim)"/>
      <circle cx="306" cy="150" r="3.5" fill="#3a4450"/>
    </g>
  </g>
</svg>
